<svg width="114" height="104" viewBox="0 0 114 104" fill="none" xmlns="http://www.w3.org/2000/svg">
<rect width="114" height="104" fill="#EFD81D"/>
<path d="M62.8457 57.4531H71.3906V81.8428C71.3906 84.1051 70.8617 86.1234 69.8037 87.8975C68.762 89.6715 67.2972 91.0469 65.4092 92.0234C63.5374 93 61.446 93.4883 59.1348 93.4883C55.2611 93.4883 52.25 92.5117 50.1016 90.5586C47.9531 88.6055 46.8789 85.8385 46.8789 82.2578H55.4727C55.4727 83.8854 55.7493 85.0654 56.3027 85.7979C56.8724 86.5303 57.8164 86.8965 59.1348 86.8965C60.3229 86.8965 61.2344 86.457 61.8691 85.5781C62.5202 84.6829 62.8457 83.4378 62.8457 81.8428V57.4531ZM95.1455 83.5518C95.1455 82.2985 94.6979 81.3219 93.8027 80.6221C92.9238 79.9222 91.3695 79.1979 89.1396 78.4492C86.9098 77.7005 85.0869 76.9762 83.6709 76.2764C79.0648 74.014 76.7617 70.9053 76.7617 66.9502C76.7617 64.9808 77.3314 63.2474 78.4707 61.75C79.6263 60.2363 81.2539 59.0645 83.3535 58.2344C85.4531 57.388 87.8132 56.9648 90.4336 56.9648C92.9889 56.9648 95.2757 57.4206 97.2939 58.332C99.3285 59.2435 100.907 60.5456 102.03 62.2383C103.153 63.9147 103.715 65.8353 103.715 68H95.1699C95.1699 66.5514 94.7223 65.4284 93.8271 64.6309C92.9482 63.8333 91.752 63.4346 90.2383 63.4346C88.7083 63.4346 87.4958 63.7764 86.6006 64.46C85.7217 65.1273 85.2822 65.9818 85.2822 67.0234C85.2822 67.9349 85.7705 68.765 86.7471 69.5137C87.7236 70.2461 89.4408 71.0111 91.8984 71.8086C94.3561 72.5898 96.3743 73.4362 97.9531 74.3477C101.794 76.5612 103.715 79.613 103.715 83.5029C103.715 86.6117 102.543 89.0531 100.199 90.8271C97.8555 92.6012 94.641 93.4883 90.5557 93.4883C87.6748 93.4883 85.0625 92.9756 82.7188 91.9502C80.3913 90.9085 78.6335 89.4925 77.4453 87.7021C76.2734 85.8955 75.6875 83.8203 75.6875 81.4766H84.2812C84.2812 83.3809 84.7695 84.7887 85.7461 85.7002C86.7389 86.5954 88.3421 87.043 90.5557 87.043C91.9717 87.043 93.0866 86.7419 93.9004 86.1396C94.7305 85.5212 95.1455 84.6585 95.1455 83.5518Z" fill="black"/>
</svg>
