<svg xmlns="http://www.w3.org/2000/svg" viewBox="0 0 258.89 258.65"><defs><style>.cls-1{fill:#f15a24;stroke:#000;stroke-miterlimit:10;}</style></defs><g id="Capa_2" data-name="Capa 2"><g id="Capa_1-2" data-name="Capa 1"><path class="cls-1" d="M134.94,257.5s-7,2-13-1-18-17-18-17l-11-11-10-10-19-19-20-20-10-10-19-19-10-10-4-6a35.88,35.88,0,0,1,0-11s0-2,4-7l25-24,27-27,24-24s1-2,3,0l27,27s-4,22,11,26h0v72s-26,16-1,35c0,0,9,6,18,0,0,0,25-9.73,0-34.36V96.5l25,25s-3,24.76,14,27.88c0,0,3.55,2.88,14.27,0,0,0,10.72-6.88,10.72-12.88,0,0,6-30-27-26l-12-12-9-9-6-6s7-29-26-26l-14-14-7-7.18-8-7.82,20-20,10-8h13.47l4.53,5,9,9,10,10,9,9,7,7,23,23,13,13,10,10,10,10,22,22s2,2,3,7a20.91,20.91,0,0,1,0,8.34s0,4.66-2,5.66l-13,13-14,14-11,11-31,31-18,18-16,16-7,7-7,7A10.34,10.34,0,0,1,134.94,257.5Z"/></g></g></svg>