<svg xmlns="http://www.w3.org/2000/svg" viewBox="0 0 339.62 376.19"><defs><style>.cls-1{fill:#f60;stroke:#e45700;stroke-miterlimit:10;stroke-width:18px;}.cls-2{fill:#fff;}.cls-3{opacity:0.1;}</style></defs><g id="Capa_2" data-name="Capa 2"><g id="Capa_1-2" data-name="Capa 1"><polygon class="cls-1" points="170.04 366.84 69.72 338.73 39.67 330.08 30.8 250.3 23.02 158.62 17.4 96.78 11.13 23.7 9.83 9 71.45 9 115.56 9 210.69 9 246.37 9 329.83 9 323.99 77.97 316.86 161.87 310.37 234.73 304.75 302.19 301.5 328.35 237.07 347.81 170.04 366.84"/><polygon class="cls-2" points="255.04 84.46 83.8 84.46 89.86 196.03 209.64 198.62 207.91 237.54 169.42 252.68 130.94 238.84 129.21 216.78 92.02 215.49 94.18 266.95 169.42 293 244.18 268.19 247.75 204.13 250.67 159.38 125.8 159.7 123.69 121.76 253.42 121.92 255.86 84.46 255.04 84.46"/><polyline class="cls-3" points="19.98 18.06 22.79 53.2 26.03 89.85 29.06 124.77 31.76 153.52 34.14 181.09 36.95 214.71 41.6 265.42 47.01 313.09 48.09 323.25 131.76 346.5 169.83 357.09 169.83 18.06"/></g></g></svg>