<svg xmlns="http://www.w3.org/2000/svg" viewBox="0 0 185.27 206.74"><defs><style>.cls-1{fill:#38a6ff;stroke:#1c89df;stroke-miterlimit:10;stroke-width:10px;}.cls-2{fill:#fff;}.cls-3{opacity:0.1;}</style></defs><g id="Capa_2" data-name="Capa 2"><g id="Capa_1-2" data-name="Capa 1"><polygon class="cls-1" points="5.49 5 10.19 55.27 13.92 94.19 17.81 140.08 21.38 180.3 92.73 201.54 163.6 181.76 170.41 103.27 175.6 54.13 179 14.24 179.81 5 121.27 5 46.52 5 5.49 5"/><path class="cls-2" d="M40.3,60.51l-1.73-22H147.22l-1.73,24.65-4.11,47-3.13,31.78-.54,7.89-43.46,12H89.71L48.52,149.92,45,115.43l22.92.33.11,15,26.27,7.9s23.46-6.49,23.13-6.27,1.41-26.92,1.41-26.92l-50.49-.76L66.46,82.46l55.25.11,1-22.06L40.3,61"/><polyline class="cls-3" points="11 10.06 12.87 29.85 14.49 46.87 16 63.01 17.52 79.5 18.49 89.33 19.36 99.28 19.73 104.85 20.49 112.63 20.92 118.74 21.68 127.33 22.11 132.09 22.65 138.14 23.25 145.12 26 176.41 92.57 196.2 93.46 10.06"/></g></g></svg>